<svg width="64" height="12" viewBox="0 0 64 12" fill="none" xmlns="http://www.w3.org/2000/svg">
<path fill-rule="evenodd" clip-rule="evenodd" d="M0 0.872314H2.0351C2.74739 0.872314 3.29977 1.0322 3.72133 1.33747C4.12835 1.64273 4.33185 2.1079 4.33185 2.73297C4.33185 3.35803 4.12835 3.8232 3.72133 4.143C3.31431 4.44826 2.74739 4.60815 2.0351 4.60815H0.71229V7.84978H0V0.872314ZM0.697762 3.95402H1.84613C2.16593 3.95402 2.42758 3.92496 2.64563 3.85227C2.86368 3.77959 3.03811 3.69236 3.16894 3.59061C3.29977 3.48885 3.40152 3.35803 3.45966 3.21267C3.51781 3.06731 3.54688 2.9074 3.54688 2.73297C3.54688 2.57307 3.51781 2.41316 3.45966 2.26779C3.40152 2.12243 3.29977 1.99162 3.16894 1.87533C3.03811 1.75904 2.86368 1.67181 2.64563 1.61366C2.42758 1.55552 2.15139 1.52645 1.84613 1.52645H0.697762V3.95402ZM9.27425 7.6682L9.27424 7.66816C9.27049 7.6062 9.26686 7.54624 9.25936 7.48628V7.12287H9.24481C9.17213 7.2537 9.08493 7.35544 8.96864 7.47173C8.85235 7.57348 8.73604 7.6607 8.59068 7.74792C8.45985 7.8206 8.29995 7.87874 8.15459 7.92235C7.99469 7.96596 7.84933 7.98051 7.68943 7.98051C7.09344 7.98051 6.65736 7.8206 6.38117 7.51534C6.10498 7.21007 5.9596 6.75945 5.9596 6.17799V3.25619H6.61373V5.81458C6.61373 6.07624 6.62828 6.29428 6.67189 6.49779C6.7155 6.7013 6.77365 6.8612 6.8754 6.99203C6.97715 7.12285 7.09344 7.22462 7.25334 7.2973C7.41324 7.36998 7.61674 7.39904 7.86386 7.39904C7.89294 7.39904 7.99469 7.38451 8.14006 7.35543C8.28542 7.32636 8.44532 7.25369 8.61976 7.1374C8.7942 7.02111 8.93956 6.84668 9.07038 6.59956C9.20121 6.36698 9.27389 6.03263 9.27389 5.61107V3.24166H9.92802V6.84667C9.92802 6.9775 9.92804 7.12287 9.94258 7.32638C9.94956 7.41722 9.95319 7.50806 9.95669 7.59567V7.59568V7.59569V7.59571V7.59572V7.59574C9.96046 7.69035 9.96409 7.7812 9.97163 7.86422H9.28844V7.84969C9.2814 7.78633 9.27777 7.72639 9.27425 7.6682ZM12.6026 3.42338L12.6026 3.42334C12.5991 3.36515 12.5954 3.3052 12.5884 3.24185V3.2273H11.9052C11.9127 3.31032 11.9164 3.40118 11.9202 3.49581V3.49583C11.9237 3.58345 11.9273 3.67429 11.9343 3.76514C11.9488 3.96854 11.9488 4.11386 11.9488 4.24463V4.24484V7.84987H12.603V5.48044C12.603 5.05888 12.6756 4.72454 12.8065 4.49195C12.9373 4.24484 13.0827 4.07041 13.2571 3.95412C13.4315 3.83783 13.5914 3.76515 13.7368 3.73608C13.8822 3.70701 13.9839 3.69247 14.013 3.69247C14.4927 3.69247 14.827 3.8233 15.0014 4.09949C15.1759 4.37568 15.2631 4.76816 15.2631 5.27693V7.83532H15.9172V4.91352C15.9172 4.33207 15.7719 3.89598 15.4957 3.57618C15.2195 3.27091 14.7834 3.111 14.1874 3.111C14.0275 3.111 13.8821 3.12555 13.7222 3.16916C13.5769 3.21277 13.4315 3.27091 13.2862 3.34359C13.1408 3.43081 13.0245 3.51803 12.9082 3.61979C12.7919 3.73608 12.7047 3.83784 12.632 3.96867H12.6175V3.60526C12.61 3.5453 12.6064 3.48533 12.6026 3.42338ZM20.3652 3.82318H19.0279V6.54148C19.0279 6.71591 19.0424 6.84675 19.0715 6.96304C19.1006 7.07933 19.1442 7.15201 19.2023 7.21016C19.2605 7.2683 19.3332 7.31191 19.4204 7.34098C19.5076 7.37005 19.5948 7.37006 19.6966 7.37006C19.8129 7.37006 19.9292 7.35553 20.0454 7.32645C20.1617 7.29738 20.278 7.25375 20.3652 7.19561L20.3943 7.79161C20.1472 7.9079 19.8565 7.96606 19.5221 7.96606C19.3913 7.96606 19.2605 7.9515 19.1296 7.92243C18.9988 7.89335 18.868 7.82069 18.7662 7.73347C18.6499 7.64625 18.5627 7.51541 18.49 7.35551C18.4174 7.19561 18.3883 6.99211 18.3883 6.73046V3.82318H17.4144V3.22719H18.3883V1.91892H19.0424V3.22719H20.3798V3.82318H20.3652ZM26.2529 6.49798C26.3837 6.20725 26.4419 5.88745 26.4419 5.53858C26.4419 5.1897 26.3837 4.86992 26.2529 4.57919C26.1366 4.28846 25.9622 4.02681 25.7441 3.80877C25.5261 3.59072 25.279 3.41628 24.9737 3.29998C24.683 3.16916 24.3486 3.111 23.9852 3.111C23.6218 3.111 23.302 3.18369 22.9968 3.29998C22.706 3.41628 22.4444 3.59072 22.2263 3.80877C22.0083 4.02681 21.8338 4.28846 21.7176 4.57919C21.5867 4.86992 21.5286 5.1897 21.5286 5.53858C21.5286 5.88745 21.6013 6.20725 21.7176 6.49798C21.8338 6.78871 22.0083 7.05036 22.2263 7.26841C22.4444 7.48645 22.6915 7.6609 22.9968 7.77719C23.302 7.89348 23.6364 7.95162 23.9852 7.95162C24.3486 7.95162 24.6684 7.89348 24.9737 7.77719C25.2644 7.6609 25.5261 7.48645 25.7441 7.26841C25.9622 7.05036 26.1366 6.78871 26.2529 6.49798ZM25.6133 4.81176C25.7005 5.04434 25.7441 5.27692 25.7441 5.53858C25.7441 5.80023 25.7005 6.04736 25.6133 6.25086C25.5261 6.46891 25.4098 6.67241 25.2644 6.83231C25.1045 7.00675 24.9301 7.12304 24.712 7.2248C24.494 7.32655 24.2469 7.37017 23.9852 7.37017C23.709 7.37017 23.4765 7.32655 23.2584 7.2248C23.0549 7.12304 22.8659 6.99221 22.7206 6.83231C22.5752 6.67241 22.4589 6.46891 22.3717 6.25086C22.2845 6.03282 22.2409 5.80023 22.2409 5.53858C22.2409 5.27692 22.2845 5.0298 22.3717 4.81176C22.4589 4.59371 22.5752 4.39021 22.7206 4.23031C22.8659 4.05587 23.0404 3.93958 23.2584 3.83782C23.4765 3.73607 23.709 3.69247 23.9852 3.69247C24.2614 3.69247 24.494 3.73607 24.712 3.83782C24.9301 3.93958 25.1191 4.07041 25.2644 4.23031C25.4098 4.39021 25.5261 4.59371 25.6133 4.81176ZM30.6138 4.33209C30.512 4.14312 30.3812 3.9832 30.2213 3.88145C30.0614 3.76516 29.8579 3.70702 29.6253 3.70702C29.509 3.70702 29.4072 3.72155 29.2909 3.75062C29.1746 3.7797 29.0729 3.8233 28.9857 3.88145C28.8984 3.93959 28.8258 4.01229 28.7676 4.0995C28.7095 4.18672 28.6804 4.28848 28.6804 4.41931C28.6804 4.63735 28.7531 4.79726 28.913 4.89901C29.0584 5.00076 29.2909 5.08797 29.5962 5.16065L30.2503 5.32055C30.5701 5.39324 30.8463 5.5386 31.0498 5.75665C31.2679 5.9747 31.3696 6.25087 31.3696 6.58521C31.3696 6.83233 31.3115 7.05038 31.2097 7.22482C31.108 7.39925 30.9771 7.55915 30.8027 7.67544C30.6283 7.79173 30.4393 7.87895 30.2213 7.92255C30.0032 7.9807 29.7852 7.99524 29.5671 7.99524C29.2183 7.99524 28.8839 7.92256 28.5786 7.79173C28.2734 7.66091 28.0117 7.42833 27.7937 7.09399L28.3606 6.71606C28.4914 6.91957 28.6513 7.09399 28.8548 7.22482C29.0584 7.35564 29.2909 7.4138 29.5671 7.4138C29.698 7.4138 29.8288 7.39926 29.9596 7.37019C30.0904 7.34112 30.2067 7.29751 30.3085 7.23937C30.4102 7.18122 30.4975 7.09398 30.5556 6.99223C30.6137 6.89047 30.6428 6.7742 30.6428 6.64337C30.6428 6.41079 30.5556 6.25089 30.3812 6.14914C30.2067 6.04738 30.0032 5.96015 29.7561 5.902L29.131 5.75665C29.0774 5.74592 28.9999 5.71933 28.9104 5.6886C28.8787 5.67771 28.8455 5.6663 28.8112 5.65488C28.6804 5.61128 28.5496 5.53859 28.4187 5.45138C28.2879 5.36416 28.1862 5.23333 28.0844 5.08797C27.9972 4.9426 27.939 4.75365 27.939 4.5356C27.939 4.30302 27.9827 4.08496 28.0844 3.91052C28.1862 3.73609 28.3025 3.59072 28.4624 3.47443C28.6223 3.35814 28.8112 3.28546 29.0147 3.22731C29.2183 3.16917 29.4218 3.1401 29.6398 3.1401C29.9596 3.1401 30.2649 3.19825 30.5411 3.32908C30.8173 3.45991 31.0353 3.66342 31.1807 3.96868L30.6138 4.33209ZM50.4378 4.01217H52.0077V2.58761H50.4378V0.872314H48.6498V2.58761H47.5015V4.01217H48.6498V6.75954C48.6498 7.07934 48.708 7.35553 48.8097 7.57358C48.926 7.79163 49.0714 7.96606 49.2604 8.11143C49.4493 8.25679 49.6674 8.35854 49.9436 8.40215C50.1907 8.47483 50.4669 8.50391 50.7721 8.50391C50.9757 8.50391 51.1792 8.50391 51.3972 8.47484C51.6153 8.44576 51.8188 8.40215 52.0223 8.32947V6.84676C51.9496 6.90491 51.8333 6.96305 51.6734 6.97759C51.655 6.97926 51.6371 6.98094 51.6198 6.98259C51.6005 6.98444 51.5819 6.98625 51.5638 6.98801L51.5635 6.98804L51.5635 6.98804C51.4575 6.99837 51.3723 7.00666 51.2955 7.00666C51.0919 7.00666 50.9466 6.99213 50.8303 6.93398C50.714 6.89037 50.6268 6.81769 50.5686 6.71593C50.525 6.62872 50.4814 6.51243 50.4669 6.3816C50.4524 6.25077 50.4378 6.10541 50.4378 5.94551V4.01217ZM37.1224 8.2133C37.5585 8.00979 37.9074 7.7336 38.1981 7.37019L36.948 6.4544C36.8026 6.65791 36.6282 6.83234 36.4247 6.96317C36.2212 7.07946 35.974 7.15214 35.6833 7.15214C35.3344 7.15214 35.0292 7.05039 34.7966 6.84688C34.564 6.65791 34.4041 6.38172 34.3314 6.03284H38.4598V5.48046C38.4598 5.0153 38.4016 4.60828 38.2708 4.23033C38.14 3.85239 37.9655 3.53259 37.7329 3.27093C37.5004 3.00928 37.2096 2.80577 36.8753 2.66041C36.541 2.51504 36.163 2.44236 35.756 2.44236C35.3199 2.44236 34.8984 2.51504 34.4913 2.66041C34.0989 2.80577 33.7645 3.00928 33.4738 3.27093C33.1831 3.53259 32.9505 3.85239 32.7906 4.23033C32.6307 4.60828 32.5435 5.0153 32.5435 5.48046C32.5435 5.94563 32.6307 6.35264 32.8197 6.71605C32.9796 7.094 33.2121 7.4138 33.5029 7.67545C33.7791 7.93711 34.1279 8.14062 34.5204 8.28598C34.9129 8.43134 35.3199 8.50403 35.7705 8.50403C36.2357 8.50403 36.6863 8.41681 37.1224 8.2133ZM36.3956 4.0559C36.5991 4.27394 36.7009 4.52106 36.6863 4.82632H34.3314C34.346 4.68096 34.375 4.55013 34.4332 4.41931C34.4913 4.28848 34.5786 4.17219 34.6803 4.08497C34.7966 3.98322 34.9274 3.91053 35.0728 3.83785C35.2182 3.76517 35.3926 3.7361 35.5961 3.7361C35.9159 3.7361 36.1921 3.83785 36.3956 4.0559ZM53.4023 2.58772H55.1758V3.51805H55.2048C55.3938 3.15464 55.6264 2.89299 55.888 2.71855C56.1497 2.52958 56.4695 2.44236 56.8765 2.44236C56.9783 2.44236 57.08 2.44236 57.1818 2.4569L57.1818 2.4569C57.2836 2.47144 57.3853 2.48597 57.4725 2.50051V4.12858C57.3417 4.08497 57.2254 4.0559 57.0946 4.04136L57.0619 4.03771C56.944 4.02449 56.8353 4.01229 56.7021 4.01229C56.3678 4.01229 56.0916 4.0559 55.888 4.15765C55.6991 4.25941 55.5392 4.39023 55.4374 4.55013C55.3357 4.72457 55.263 4.92808 55.2339 5.16066C55.2048 5.39324 55.1903 5.6549 55.1903 5.94563V8.35866H53.4023V2.58772ZM62.3283 7.64638H62.3574V8.3732H64V5.43685C64 4.95715 63.9564 4.52106 63.8837 4.15765C63.811 3.79424 63.6656 3.47444 63.4621 3.22732C63.2586 2.96567 62.9824 2.7767 62.6481 2.64587C62.3137 2.51504 61.8777 2.44236 61.3543 2.44236C60.8746 2.44236 60.424 2.52958 59.9734 2.70401C59.5373 2.86391 59.1448 3.0965 58.8105 3.40176L59.7699 4.3757C59.9589 4.15765 60.1769 3.99775 60.424 3.86692C60.6566 3.7361 60.9328 3.67795 61.2235 3.67795C61.5288 3.67795 61.7904 3.76517 62.023 3.95414C62.2411 4.14312 62.3574 4.39023 62.3574 4.71003C62.1102 4.71003 61.8486 4.71003 61.5579 4.72457C61.2671 4.73911 60.9764 4.75364 60.6857 4.79725C60.3949 4.84086 60.1188 4.89901 59.8426 4.98623C59.5809 5.07344 59.3338 5.18973 59.1303 5.3351C58.9268 5.48046 58.7669 5.66944 58.636 5.90202C58.5052 6.1346 58.4471 6.41079 58.4471 6.74513C58.4471 7.03585 58.4907 7.29751 58.607 7.51555C58.7233 7.7336 58.8686 7.92257 59.0576 8.06794C59.2466 8.2133 59.4646 8.32959 59.7117 8.40227C59.9734 8.47495 60.2205 8.51856 60.4967 8.51856C60.8601 8.51856 61.209 8.44588 61.5433 8.31505C61.8631 8.18423 62.1248 7.95164 62.3283 7.64638ZM61.4125 5.85841C61.616 5.84387 61.7904 5.84387 61.9213 5.84387H62.3719V6.22182C62.3719 6.41079 62.3283 6.57069 62.2556 6.70152C62.1829 6.83234 62.0812 6.94864 61.9503 7.03585C61.8195 7.12307 61.6741 7.19575 61.5142 7.23936C61.3543 7.28297 61.1799 7.31204 61.0055 7.31204C60.8165 7.31204 60.6275 7.2539 60.4386 7.15214C60.2496 7.05039 60.1624 6.89049 60.1624 6.67244C60.1624 6.46894 60.2205 6.32357 60.3513 6.20728C60.4822 6.10553 60.6421 6.01831 60.831 5.96016C61.02 5.90202 61.209 5.87294 61.4125 5.85841ZM38.523 1.96957H41.0523L42.6949 4.30993L44.2213 1.96957H46.7797L44.0759 5.71995L47.8554 11.1275H45.4423L42.7531 7.07183L41.5175 8.9761H38.9591L41.2994 5.71995L38.523 1.96957Z" fill="#0C0C0C"/>
</svg>
